<svg width="24" height="26" viewBox="0 0 24 26" fill="none" xmlns="http://www.w3.org/2000/svg">
<path d="M22.465 6.23518L12.84 0.96877C12.5828 0.826672 12.2938 0.752136 12 0.752136C11.7062 0.752136 11.4172 0.826672 11.16 0.96877L1.535 6.23736C1.26013 6.38776 1.03068 6.60919 0.870604 6.87855C0.710531 7.1479 0.625711 7.45529 0.625 7.76861V18.2292C0.625711 18.5426 0.710531 18.85 0.870604 19.1193C1.03068 19.3887 1.26013 19.6101 1.535 19.7605L11.16 25.0291C11.4172 25.1712 11.7062 25.2457 12 25.2457C12.2938 25.2457 12.5828 25.1712 12.84 25.0291L22.465 19.7605C22.7399 19.6101 22.9693 19.3887 23.1294 19.1193C23.2895 18.85 23.3743 18.5426 23.375 18.2292V7.76971C23.3749 7.45582 23.2903 7.14775 23.1302 6.87777C22.9701 6.60779 22.7404 6.38584 22.465 6.23518ZM12 2.50002L20.7872 7.31252L12 12.125L3.21281 7.31252L12 2.50002ZM2.375 8.84377L11.125 13.6322V23.0155L2.375 18.2303V8.84377ZM12.875 23.0155V13.6366L21.625 8.84377V18.226L12.875 23.0155Z" fill="#CE00F0"/>
</svg>
