<svg width="24" height="24" viewBox="0 0 24 24" fill="none" xmlns="http://www.w3.org/2000/svg">
<path d="M20.0307 5.03104L15.3104 9.75042H18.0001C18.199 9.75042 18.3897 9.82943 18.5304 9.97009C18.671 10.1107 18.7501 10.3015 18.7501 10.5004C18.7501 10.6993 18.671 10.8901 18.5304 11.0307C18.3897 11.1714 18.199 11.2504 18.0001 11.2504H13.5001C13.3011 11.2504 13.1104 11.1714 12.9697 11.0307C12.8291 10.8901 12.7501 10.6993 12.7501 10.5004V6.00042C12.7501 5.8015 12.8291 5.61074 12.9697 5.47009C13.1104 5.32943 13.3011 5.25042 13.5001 5.25042C13.699 5.25042 13.8897 5.32943 14.0304 5.47009C14.171 5.61074 14.2501 5.8015 14.2501 6.00042V8.6901L18.9694 3.96979C19.1102 3.82906 19.301 3.75 19.5001 3.75C19.6991 3.75 19.8899 3.82906 20.0307 3.96979C20.1714 4.11052 20.2505 4.30139 20.2505 4.50042C20.2505 4.69944 20.1714 4.89031 20.0307 5.03104ZM10.5001 12.7504H6.00005C5.80114 12.7504 5.61037 12.8294 5.46972 12.9701C5.32907 13.1107 5.25005 13.3015 5.25005 13.5004C5.25005 13.6993 5.32907 13.8901 5.46972 14.0307C5.61037 14.1714 5.80114 14.2504 6.00005 14.2504H8.68974L3.96943 18.9698C3.8287 19.1105 3.74963 19.3014 3.74963 19.5004C3.74963 19.6994 3.8287 19.8903 3.96943 20.031C4.11016 20.1718 4.30103 20.2508 4.50005 20.2508C4.69907 20.2508 4.88995 20.1718 5.03068 20.031L9.75005 15.3107V18.0004C9.75005 18.1993 9.82907 18.3901 9.96972 18.5307C10.1104 18.6714 10.3011 18.7504 10.5001 18.7504C10.699 18.7504 10.8897 18.6714 11.0304 18.5307C11.171 18.3901 11.2501 18.1993 11.2501 18.0004V13.5004C11.2501 13.3015 11.171 13.1107 11.0304 12.9701C10.8897 12.8294 10.699 12.7504 10.5001 12.7504Z" fill="#ABABAB"/>
</svg>
