<svg width="24" height="18" viewBox="0 0 24 18" fill="none" xmlns="http://www.w3.org/2000/svg">
<path d="M23.2041 13.3491L20.4375 2.43756C20.3647 2.1535 20.2107 1.89683 19.9942 1.69901C19.7777 1.50119 19.5083 1.3708 19.2188 1.32381L15.8382 0.768811C15.4655 0.70887 15.0838 0.789683 14.7674 0.995534C14.451 1.20138 14.2225 1.51756 14.1263 1.88256L14.1066 1.96225C14.0939 2.01288 14.0918 2.06561 14.1006 2.11707C14.1094 2.16853 14.1289 2.21758 14.1578 2.26109C14.1866 2.30459 14.2242 2.3416 14.2682 2.36973C14.3122 2.39785 14.3616 2.41649 14.4132 2.42444C15.1889 2.53828 15.9542 2.71448 16.7016 2.95131C16.8885 3.00769 17.0469 3.13303 17.1447 3.3019C17.2426 3.47078 17.2725 3.67054 17.2285 3.86069C17.2032 3.95977 17.1579 4.05264 17.0954 4.13357C17.0329 4.21451 16.9545 4.2818 16.865 4.33133C16.7755 4.38085 16.6769 4.41155 16.5751 4.42154C16.4733 4.43154 16.3706 4.42061 16.2732 4.38944C13.4999 3.53892 10.5358 3.53566 7.76067 4.38006C7.57286 4.44321 7.36795 4.43159 7.18848 4.34762C7.00901 4.26365 6.86879 4.11377 6.79692 3.92912C6.76276 3.83437 6.74804 3.73372 6.75363 3.63315C6.75922 3.53259 6.78501 3.43418 6.82945 3.3438C6.8739 3.25342 6.9361 3.17292 7.01233 3.10709C7.08857 3.04127 7.17728 2.99148 7.27317 2.96069C8.02992 2.71964 8.80496 2.54031 9.59067 2.42444C9.64227 2.41649 9.69164 2.39785 9.73562 2.36973C9.77961 2.3416 9.81723 2.30459 9.84609 2.26109C9.87495 2.21758 9.8944 2.16853 9.90321 2.11707C9.91202 2.06561 9.90998 2.01288 9.89723 1.96225L9.87755 1.88256C9.78131 1.51725 9.55246 1.20087 9.23562 0.995133C8.91878 0.789395 8.53667 0.709044 8.1638 0.769749L4.7813 1.32475C4.49196 1.37167 4.22257 1.50192 4.00611 1.69956C3.78965 1.89721 3.63551 2.15367 3.56255 2.43756L0.795984 13.3491C0.70924 13.6921 0.746993 14.0547 0.902525 14.3725C1.05806 14.6903 1.32128 14.9425 1.64536 15.0844L7.92661 17.8697C8.11548 17.9537 8.31952 17.9982 8.5262 18.0004C8.73289 18.0026 8.93783 17.9625 9.12846 17.8826C9.31908 17.8027 9.49135 17.6847 9.63468 17.5357C9.77801 17.3868 9.88937 17.2102 9.96192 17.0166L10.2891 16.1307C10.3086 16.0776 10.3159 16.0208 10.3103 15.9646C10.3048 15.9083 10.2866 15.854 10.2571 15.8058C10.2276 15.7576 10.1876 15.7166 10.14 15.686C10.0925 15.6554 10.0387 15.636 9.98255 15.6291C9.0718 15.5188 8.17326 15.3243 7.29848 15.0479C7.1124 14.9913 6.95467 14.8663 6.85708 14.6981C6.75948 14.5299 6.72928 14.3309 6.77255 14.1413C6.79763 14.0419 6.8428 13.9488 6.90528 13.8676C6.96777 13.7863 7.04623 13.7188 7.13584 13.6691C7.22544 13.6193 7.32429 13.5885 7.42627 13.5785C7.52826 13.5684 7.63122 13.5794 7.7288 13.6107C10.5125 14.4632 13.4876 14.4632 16.2713 13.6107C16.3688 13.5795 16.4716 13.5686 16.5734 13.5787C16.6752 13.5887 16.7739 13.6195 16.8634 13.6691C16.9529 13.7188 17.0313 13.7862 17.0937 13.8672C17.1562 13.9482 17.2014 14.0412 17.2266 14.1404C17.2704 14.3301 17.2404 14.5294 17.1427 14.6979C17.0451 14.8664 16.8871 14.9915 16.7007 15.0479C15.8262 15.3243 14.928 15.5189 14.0175 15.6291C13.9614 15.636 13.9076 15.6554 13.86 15.686C13.8125 15.7166 13.7725 15.7576 13.743 15.8058C13.7135 15.854 13.6953 15.9083 13.6898 15.9646C13.6842 16.0208 13.6915 16.0776 13.711 16.1307L14.0382 17.0166C14.1108 17.2101 14.2223 17.3866 14.3656 17.5355C14.509 17.6843 14.6812 17.8023 14.8718 17.8822C15.0624 17.9621 15.2673 18.0022 15.4739 18.0001C15.6806 17.9979 15.8846 17.9536 16.0735 17.8697L22.3547 15.0844C22.6788 14.9425 22.942 14.6903 23.0976 14.3725C23.2531 14.0547 23.2909 13.6921 23.2041 13.3491ZM8.62505 11.2501C8.40254 11.2501 8.18504 11.1841 8.00003 11.0605C7.81503 10.9368 7.67083 10.7611 7.58568 10.5556C7.50053 10.35 7.47826 10.1238 7.52166 9.90558C7.56507 9.68736 7.67222 9.4869 7.82955 9.32957C7.98689 9.17223 8.18734 9.06509 8.40557 9.02168C8.6238 8.97827 8.85 9.00055 9.05557 9.0857C9.26113 9.17085 9.43683 9.31504 9.56045 9.50004C9.68407 9.68505 9.75005 9.90256 9.75005 10.1251C9.75005 10.4234 9.63152 10.7096 9.42054 10.9206C9.20956 11.1315 8.92342 11.2501 8.62505 11.2501ZM15.375 11.2501C15.1525 11.2501 14.935 11.1841 14.75 11.0605C14.565 10.9368 14.4208 10.7611 14.3357 10.5556C14.2505 10.35 14.2283 10.1238 14.2717 9.90558C14.3151 9.68736 14.4222 9.4869 14.5796 9.32957C14.7369 9.17223 14.9373 9.06509 15.1556 9.02168C15.3738 8.97827 15.6 9.00055 15.8056 9.0857C16.0111 9.17085 16.1868 9.31504 16.3104 9.50004C16.4341 9.68505 16.5 9.90256 16.5 10.1251C16.5 10.4234 16.3815 10.7096 16.1705 10.9206C15.9596 11.1315 15.6734 11.2501 15.375 11.2501Z" fill="#9E3FFE"/>
</svg>
