<svg width="119" height="48" viewBox="0 0 119 48" fill="none" xmlns="http://www.w3.org/2000/svg">
<g clip-path="url(#clip0_143_7881)">
<path d="M32.9392 19.5537C32.9392 19.5537 32.9004 19.5619 32.8562 19.5735C32.7861 19.6108 32.7603 19.6365 32.7345 19.6622C32.6951 19.6725 32.6557 19.6829 32.5554 19.7044C32.2997 19.8389 32.1049 19.9624 31.9102 20.0858C31.9102 20.0858 31.8662 20.0963 31.8087 20.1035C31.4766 20.2643 31.2019 20.4179 30.9273 20.5714C30.9273 20.5714 30.8956 20.5767 30.8469 20.5899C30.6151 20.7113 30.432 20.8195 30.2488 20.9278C30.2488 20.9278 30.2496 20.9284 30.214 20.9279C30.0646 20.9985 29.9509 21.0696 29.8371 21.1407C29.7824 21.1663 29.7277 21.1919 29.6133 21.236C29.3927 21.3482 29.2318 21.4418 29.0708 21.5355C29.0708 21.5355 29.0308 21.5425 28.9763 21.5538C28.4877 21.778 28.0477 21.9799 27.621 22.2065C27.0162 22.5277 26.4212 22.8671 25.8221 23.1987C25.8221 23.1987 25.7837 23.2063 25.7294 23.2157C25.4276 23.3449 25.1801 23.4646 24.9326 23.5844C24.9406 23.6313 24.9486 23.6782 24.9566 23.7251C25.1897 23.8201 25.4228 23.9151 25.656 24.0102C25.6942 24.0261 25.7324 24.0421 25.8224 24.0916C26.9442 24.6305 28.0143 25.1359 29.0844 25.6413C29.1317 25.6699 29.179 25.6985 29.2741 25.759C29.4232 25.8313 29.5244 25.8716 29.6257 25.9119C29.6257 25.9119 29.6638 25.9333 29.7056 25.9663C30.6489 26.4212 31.5505 26.8431 32.4521 27.265C32.4831 27.2828 32.5141 27.3006 32.593 27.3526C33.0672 27.5857 33.4936 27.7845 33.92 27.9833C33.9539 27.9992 33.9878 28.0151 34.0687 28.0658C34.6428 28.3428 35.1698 28.5851 35.6969 28.8274C35.6969 28.8274 35.7327 28.8498 35.769 28.8852C36.8503 29.4114 37.8954 29.9022 38.9404 30.393C38.9404 30.393 38.9739 30.4155 39.0085 30.4424C39.078 30.4787 39.1128 30.4881 39.1476 30.4975C39.1476 30.4975 39.1815 30.5201 39.2144 30.5525C39.3179 30.628 39.3884 30.6711 39.4589 30.7143C39.4589 30.7143 39.4591 30.7166 39.4547 30.7657C39.4502 33.5591 39.4502 36.3033 39.4502 39.1403C38.9575 38.9488 38.5774 38.801 38.1973 38.6532C38.1973 38.6532 38.1572 38.6291 38.1135 38.5964C37.5528 38.3221 37.0358 38.0805 36.5187 37.8389C36.4817 37.8217 36.4446 37.8046 36.3559 37.7536C36.0638 37.6118 35.8234 37.5038 35.583 37.3959C35.583 37.3959 35.5474 37.3717 35.5059 37.3388C35.2241 37.1994 34.9839 37.0929 34.7436 36.9865C34.7436 36.9865 34.7006 36.9648 34.6567 36.9321C34.2745 36.7499 33.9362 36.6002 33.5978 36.4505C33.5661 36.4332 33.5345 36.4158 33.4565 36.368C33.2945 36.2856 33.179 36.2337 33.0634 36.1818C33.0279 36.1617 32.9923 36.1416 32.9059 36.088C32.7529 36.0147 32.6508 35.9749 32.5486 35.9351C32.5157 35.9202 32.4827 35.9052 32.4038 35.8557C31.4794 35.4071 30.6011 34.9931 29.7229 34.5792C29.6917 34.562 29.6605 34.5448 29.5823 34.4942C29.3881 34.3972 29.241 34.3335 29.0939 34.2699C29.0939 34.2699 29.0578 34.2474 29.0183 34.2154C28.8766 34.1463 28.7745 34.1092 28.6723 34.0722C28.6723 34.0722 28.6337 34.0485 28.5952 34.0138C28.4562 33.9389 28.3558 33.8986 28.2553 33.8583C28.2553 33.8583 28.2152 33.8364 28.1716 33.8043C27.4709 33.4628 26.8137 33.1533 26.1565 32.8439C26.1411 32.8346 26.1258 32.8253 26.0654 32.7786C25.7524 32.6271 25.4844 32.5129 25.2164 32.3988C25.2164 32.3988 25.2163 32.3898 25.1935 32.3621C24.3163 31.936 23.462 31.5376 22.6076 31.1392C22.6076 31.1392 22.5744 31.1181 22.5396 31.0833C22.3998 31.0086 22.2947 30.9688 22.1896 30.9289C22.1896 30.9289 22.1538 30.9085 22.1133 30.8807C22.0118 30.8349 21.9507 30.8169 21.8897 30.7988C21.8897 30.7988 21.876 30.817 21.8656 30.7786C21.4066 30.5303 20.9579 30.3206 20.5093 30.1108C20.5093 30.1108 20.4688 30.089 20.4268 30.0603C20.3246 30.0152 20.2645 29.9987 20.2043 29.9823C20.2043 29.9823 20.2014 29.9871 20.1862 29.9539C18.8556 29.2768 17.5402 28.6329 16.1054 27.9306C16.1054 28.2588 16.1054 28.4576 16.1054 28.6563C16.1051 30.6787 16.093 32.7013 16.1132 34.7235C16.1182 35.2264 16.0969 35.6685 15.5617 35.8978C15.5617 35.8978 15.5233 35.9028 15.4691 35.9136C14.9563 36.1695 14.4978 36.4146 14.0392 36.6597C14.0392 36.6597 14.0316 36.6536 13.9953 36.6573C13.7542 36.7773 13.5493 36.8936 13.3445 37.0098C13.3445 37.0098 13.3099 37.0176 13.2597 37.0319C13.0212 37.1526 12.8329 37.2591 12.6446 37.3656C12.6446 37.3656 12.6023 37.3748 12.5463 37.3845C11.8901 37.7047 11.2899 38.0152 10.6898 38.3257C10.6898 38.3257 10.6822 38.3195 10.6459 38.3232C10.4048 38.4432 10.1999 38.5595 9.99503 38.6758C9.99503 38.6758 9.96048 38.6836 9.91026 38.6978C9.67176 38.8185 9.48348 38.925 9.2952 39.0315C9.2952 39.0315 9.25291 39.0408 9.19463 39.0512C8.91714 39.1423 8.69792 39.2229 8.41192 39.328C8.39335 39.0763 8.37038 38.9097 8.37032 38.743C8.36795 31.2294 8.37105 23.7158 8.35852 16.2021C8.35776 15.744 8.49908 15.6063 8.95771 15.6116C10.8763 15.6339 12.7953 15.6217 14.7141 15.6207C16.1069 15.62 16.1065 15.619 16.1052 17.0059C16.1044 17.7937 16.1051 18.5815 16.1051 19.4855C16.443 19.2767 16.6735 19.1343 16.904 18.9919C16.904 18.9919 16.9387 18.9902 16.988 18.9793C17.133 18.9074 17.2289 18.8462 17.3248 18.7851C17.3593 18.7725 17.3939 18.76 17.4871 18.7314C17.9973 18.4637 18.4489 18.2121 18.9005 17.9605C18.9005 17.9605 18.931 17.958 18.9762 17.9468C19.0749 17.8983 19.1284 17.8611 19.1819 17.8239C19.1819 17.8239 19.2226 17.8172 19.2751 17.8091C19.415 17.7385 19.5025 17.676 19.5899 17.6136C19.5899 17.6136 19.5818 17.6001 19.615 17.6081C19.6987 17.5822 19.749 17.5484 19.7994 17.5145C19.7994 17.5145 19.7825 17.5043 19.8267 17.5086C20.0088 17.4319 20.1466 17.351 20.2843 17.2701C20.2843 17.2701 20.2939 17.2745 20.3327 17.2711C20.8519 17.0052 21.3324 16.7427 21.8128 16.4802C21.8128 16.4802 21.8484 16.4728 21.8993 16.4621C22.1106 16.3541 22.2711 16.2568 22.4316 16.1595C22.4698 16.1484 22.508 16.1373 22.6035 16.117C22.7252 16.057 22.7897 16.0062 22.8541 15.9553C22.8541 15.9553 22.8914 15.949 22.9359 15.9374C23.0077 15.9003 23.0351 15.8748 23.0625 15.8493C23.0625 15.8493 23.0995 15.8415 23.1527 15.8314C23.8264 15.4891 24.4469 15.1569 25.0674 14.8246C25.0674 14.8246 25.1002 14.8233 25.1525 14.8116C25.8095 14.5019 26.4204 14.2156 27.0174 13.9031C27.8241 13.4809 28.6202 13.0385 29.4208 12.6047C29.4683 12.5918 29.5157 12.5789 29.6101 12.5533C29.6877 12.5317 29.699 12.5118 29.691 12.4811C29.691 12.4811 29.7066 12.4824 29.7454 12.4781C29.9198 12.3878 30.0555 12.3018 30.1911 12.2159C30.2266 12.2037 30.262 12.1915 30.3578 12.1684C30.6405 12.0266 30.8628 11.8957 31.0852 11.7648C31.0852 11.7648 31.0868 11.7659 31.1206 11.7652C31.2452 11.7017 31.3359 11.6387 31.4266 11.5758C31.4266 11.5758 31.4676 11.5699 31.5205 11.562C31.667 11.4936 31.7608 11.4332 31.8545 11.3728C31.8545 11.3728 31.892 11.3649 31.9444 11.3508C32.7515 10.9318 33.5061 10.5269 34.2608 10.122C34.2608 10.122 34.2984 10.1171 34.3536 10.1086C35.123 9.74898 35.8423 9.40757 36.5502 9.04445C37.4875 8.56372 38.4159 8.06601 39.3482 7.57559C39.3654 7.58094 39.3826 7.58628 39.4227 7.64877C39.4515 10.5169 39.4573 13.3278 39.4631 16.1387C39.4631 16.1387 39.4592 16.1394 39.4374 16.1518C39.385 16.184 39.3692 16.212 39.368 16.2482C39.368 16.2482 39.3605 16.2452 39.3319 16.2496C39.2774 16.2797 39.2515 16.3054 39.2255 16.3312C39.2255 16.3312 39.1848 16.3379 39.1299 16.3483C38.1823 16.8344 37.2897 17.31 36.3971 17.7856C36.2531 17.8544 36.109 17.9232 35.9003 18.0082C35.6991 18.1085 35.5626 18.1925 35.4262 18.2765C35.4262 18.2765 35.3937 18.2779 35.3424 18.2931C34.7171 18.6198 34.1431 18.9313 33.5691 19.2427C33.5691 19.2427 33.5305 19.2504 33.4767 19.2575C33.2617 19.361 33.1004 19.4574 32.9392 19.5537Z" fill="#E7BC17"/>
<path d="M77.8286 20.5119C77.8286 22.053 77.8286 23.542 77.8286 25.0716C77.0754 25.0716 76.3552 25.0716 75.5825 25.0716C75.5825 24.4368 75.5825 23.7895 75.5825 23.1423C75.5171 23.0944 75.4516 23.0465 75.3862 22.9986C75.3816 23.0741 75.4051 23.1689 75.3682 23.2223C73.4854 25.9425 69.4439 26.0042 67.1207 24.3881C63.0621 21.5648 63.212 15.5215 67.3871 12.8696C69.4665 11.5489 73.3949 11.4395 75.3403 14.1529C75.3868 14.2178 75.4452 14.2742 75.5546 14.3992C75.5546 13.6597 75.5546 13.0102 75.5546 12.323C76.3087 12.323 77.0309 12.323 77.8287 12.323C77.8287 15.03 77.8287 17.7449 77.8286 20.5119ZM71.4072 14.1616C68.8142 14.0468 66.8768 15.5265 66.5098 17.9919C66.2382 19.8157 66.8173 21.3711 68.3578 22.4545C69.8718 23.5192 71.5254 23.5714 73.1546 22.7576C75.005 21.8333 75.8741 19.8543 75.4577 17.6961C75.1171 15.9306 73.5876 14.3605 71.4072 14.1616Z" fill="#3B373A"/>
<path d="M54.6327 25.1123C54.1118 25.1123 53.6427 25.1123 53.1431 25.1123C53.1431 19.1317 53.1431 13.1901 53.1431 7.21481C53.878 7.21481 54.5987 7.21481 55.3733 7.21481C55.3733 10.746 55.3733 14.271 55.3733 17.7811C56.227 16.9647 57.0727 16.1786 57.8922 15.3664C58.8423 14.4249 59.7656 13.4567 60.7116 12.5109C60.822 12.4004 61.0006 12.2989 61.1501 12.2953C62.001 12.2749 62.8527 12.2854 63.8539 12.2854C61.7629 14.3973 59.7584 16.4217 57.6937 18.5069C59.7795 20.678 61.8543 22.8376 64.0387 25.1114C63.4524 25.1114 62.9711 25.0479 62.5136 25.1244C61.5167 25.2911 60.8753 24.8369 60.235 24.1408C58.683 22.4535 57.0634 20.8277 55.4006 19.1041C55.4006 21.1394 55.4006 23.0941 55.4006 25.1123C55.1224 25.1123 54.9034 25.1123 54.6327 25.1123Z" fill="#3B373B"/>
<path d="M98.3208 20.7301C98.3929 20.1399 98.4971 19.591 98.5025 19.0412C98.5226 16.9937 98.5103 14.946 98.5101 12.8984C98.5101 12.7123 98.5101 12.5262 98.5101 12.3132C99.2862 12.3132 100.011 12.3132 100.767 12.3132C100.767 16.5609 100.767 20.8025 100.767 25.0779C100.031 25.0779 99.2942 25.0779 98.5185 25.0779C98.5185 24.5407 98.5185 24.0273 98.5185 23.3947C98.3818 23.5502 98.3134 23.614 98.2615 23.6891C96.6214 26.0615 91.9783 26.1444 90.2355 23.4449C89.704 22.6216 89.4388 21.721 89.381 20.7528C89.3696 20.5625 89.3718 20.3712 89.3717 20.1804C89.3712 17.5777 89.3714 14.9751 89.3714 12.3292C90.0998 12.3292 90.819 12.3292 91.581 12.3292C91.5882 12.4832 91.6027 12.6494 91.6028 12.8157C91.6042 15.1236 91.5992 17.4315 91.608 19.7394C91.6095 20.1367 91.6385 20.5386 91.7049 20.93C91.9255 22.2303 92.7928 23.0473 94.2261 23.2613C96.0396 23.532 97.8566 22.6524 98.3208 20.7301Z" fill="#393538"/>
<path d="M112.877 23.3579C111.937 24.7923 110.56 25.3503 108.951 25.4378C106.807 25.5543 104.948 24.9965 103.681 23.1248C103.548 22.9277 103.453 22.7052 103.317 22.4507C103.978 22.0728 104.605 21.7144 105.231 21.3561C106.223 23.037 107.59 23.6376 109.46 23.2216C109.695 23.1692 109.93 23.0849 110.145 22.9764C111.229 22.4298 111.346 21.0502 110.282 20.4852C109.42 20.0272 108.432 19.808 107.513 19.4502C106.708 19.1369 105.84 18.8949 105.142 18.4164C103.461 17.2638 103.321 14.8142 104.759 13.3609C106.842 11.2556 110.847 11.5474 112.589 13.9351C112.74 14.1421 112.859 14.3719 113.027 14.6452C112.386 15.0033 111.784 15.3395 111.166 15.6847C110.95 15.3923 110.779 15.0893 110.542 14.851C109.649 13.9541 107.868 13.7917 106.803 14.486C105.837 15.116 105.817 16.3392 106.814 16.9143C107.379 17.24 108.018 17.4494 108.641 17.6623C109.281 17.8811 109.945 18.0289 110.593 18.2277C112.974 18.9587 113.92 21.0604 112.877 23.3579Z" fill="#3A363A"/>
<path d="M83.9672 13.571C84.875 12.4556 86.056 12.0705 87.451 12.0776C87.451 12.8544 87.451 13.606 87.451 14.3755C87.0425 14.4253 86.6399 14.4389 86.2548 14.5274C84.4869 14.9337 83.5055 16.1516 83.4861 18.0021C83.4633 20.171 83.4777 22.3402 83.476 24.5093C83.4759 24.6962 83.476 24.8832 83.476 25.0905C82.7089 25.0905 81.9971 25.0905 81.2449 25.0905C81.2449 20.8487 81.2449 16.6072 81.2449 12.3256C81.9532 12.3256 82.6886 12.3256 83.4664 12.3256C83.4664 12.9072 83.4664 13.4752 83.4664 14.0432C83.5006 14.0602 83.5349 14.0773 83.5692 14.0943C83.694 13.9301 83.8188 13.7659 83.9672 13.571Z" fill="#393539"/>
<path d="M8.34789 13.505C8.34768 11.5499 8.3602 9.64289 8.33794 7.73625C8.33248 7.26901 8.45634 7.1043 8.95241 7.10975C11.1653 7.13405 13.3787 7.12841 15.5918 7.10881C16.0063 7.10514 16.1452 7.22835 16.1296 7.63957C16.1021 8.36664 16.1345 9.09588 16.1108 9.82321C16.1056 9.98299 16.0129 10.2213 15.8892 10.2839C13.4681 11.5091 11.0367 12.7139 8.60605 13.9204C8.56392 13.9413 8.50628 13.9313 8.41086 13.9397C8.38933 13.8077 8.36857 13.6804 8.34789 13.505Z" fill="#E6BD19"/>
<path d="M49.7143 24.9683C48.9751 25.0633 48.2397 25.1079 47.4662 25.1548C47.4662 20.8401 47.4662 16.6001 47.4662 12.3227C48.189 12.3227 48.9133 12.3227 49.7181 12.3227C49.7181 16.5061 49.7181 20.712 49.7143 24.9683Z" fill="#393639"/>
<path d="M100.01 39.0955C100.009 37.6618 100.006 36.2744 100.016 34.8871C100.018 34.6761 99.8636 34.3462 100.263 34.3208C100.586 34.3002 101.01 34.1652 101.017 34.617C101.528 34.4758 102.051 34.2075 102.564 34.2245C103.057 34.2408 103.539 34.5531 104.089 34.7592C104.385 34.6192 104.793 34.3293 105.243 34.2311C106.45 33.9681 107.476 34.7593 107.544 36.0038C107.601 37.0589 107.616 38.1219 107.553 39.1757C107.515 39.8237 106.994 39.4225 106.611 39.4921C106.611 38.4352 106.609 37.4357 106.612 36.4362C106.614 35.5903 106.253 35.1216 105.566 35.0926C104.83 35.0616 104.353 35.5341 104.324 36.3847C104.294 37.2509 104.289 38.119 104.311 38.9854C104.32 39.3539 104.242 39.5159 103.833 39.5266C103.399 39.538 103.3 39.3603 103.309 38.9741C103.327 38.0901 103.319 37.2052 103.311 36.3208C103.304 35.5731 102.931 35.1189 102.322 35.0926C101.637 35.063 101.038 35.5719 101.004 36.2935C100.961 37.2108 100.979 38.1312 100.98 39.0503C100.98 39.2985 100.962 39.5302 100.642 39.5099C100.384 39.4935 99.9899 39.6528 100.01 39.0955Z" fill="#E4BE24"/>
<path d="M93.7633 36.4233C94.189 34.6864 95.5808 33.8106 97.2418 34.2915C98.4663 34.646 99.0851 35.7647 99.0642 37.0283C99.059 37.337 98.8458 37.3635 98.591 37.3613C97.5102 37.352 96.4292 37.3566 95.3483 37.3562C95.1785 37.3562 95.0086 37.3562 94.7886 37.3562C94.867 37.9974 95.2184 38.3734 95.7138 38.5663C96.4766 38.8635 97.216 38.8085 97.8441 38.1996C98.1151 37.9369 98.2736 37.9938 98.7493 38.4959C98.1501 39.4855 96.7935 39.8977 95.5197 39.4772C94.2649 39.063 93.6053 37.9373 93.7633 36.4233ZM94.9316 35.8841C94.8622 36.0701 94.7927 36.2562 94.7019 36.4993C95.8584 36.4993 96.9375 36.4993 98.0175 36.4993C97.9926 35.8056 97.6548 35.3719 96.9928 35.1619C96.213 34.9147 95.4907 35.1487 94.9316 35.8841Z" fill="#E5BF27"/>
<path d="M64.272 36.6508C64.2714 37.3965 64.2689 38.0903 64.2707 38.784C64.2728 39.5801 64.2012 39.6343 63.3683 39.4281C63.3481 39.2549 63.3268 39.0735 63.2969 38.818C62.678 39.4149 61.9902 39.688 61.1853 39.6188C60.4535 39.5559 59.8665 39.2226 59.3871 38.674C58.5728 37.742 58.5955 36.0402 59.4451 35.0703C60.3862 33.9961 61.7418 33.931 63.2808 34.9181C63.2892 34.2044 63.7176 34.2262 64.272 34.3771C64.272 35.1156 64.272 35.8571 64.272 36.6508ZM60.6879 35.3015C59.9165 35.7452 59.6134 36.4082 59.7666 37.3161C59.8821 38.0003 60.4388 38.5271 61.219 38.6907C61.9338 38.8405 62.6493 38.5125 63.0826 37.8362C63.4591 37.2487 63.4069 36.3508 62.9635 35.7866C62.4412 35.1219 61.6661 34.9388 60.6879 35.3015Z" fill="#E4BE24"/>
<path d="M55.9341 35.1071C54.7933 35.0827 54.2472 35.5912 54.2162 36.6906C54.1967 37.3836 54.2059 38.0774 54.2071 38.7708C54.2085 39.5706 54.1713 39.6014 53.2662 39.442C53.2662 38.7313 53.2656 38.008 53.2663 37.2846C53.2676 35.7765 53.284 34.2681 53.2618 32.7603C53.2558 32.3558 53.3974 32.2691 53.7727 32.2636C54.1831 32.2577 54.2202 32.4549 54.2121 32.7771C54.1961 33.4171 54.2074 34.0579 54.2074 34.7832C54.3763 34.6948 54.4942 34.6471 54.5966 34.5771C55.346 34.065 56.1396 34.0524 56.9204 34.4479C57.6329 34.8087 57.8591 35.4833 57.8705 36.2332C57.8844 37.1518 57.8606 38.0712 57.8845 38.9894C57.8941 39.3599 57.7893 39.5159 57.3972 39.5268C56.9641 39.5388 56.9236 39.3122 56.9281 38.9743C56.939 38.1423 56.9394 37.3098 56.9234 36.4779C56.9076 35.6564 56.7056 35.3824 55.9341 35.1071Z" fill="#E4BE26"/>
<path d="M83.0318 38.0499C83.3742 37.3086 83.6886 36.5467 83.9958 35.7819C84.1121 35.4923 84.2086 35.1949 84.3195 34.9031C84.5773 34.2249 84.676 34.1819 85.5081 34.4143C85.2667 35.0596 85.0314 35.703 84.7858 36.3425C84.3262 37.5394 83.855 38.7321 83.3992 39.9304C83.0046 40.9677 82.1497 41.5842 81.1586 41.4906C81.1586 41.2462 81.1586 40.9964 81.1586 40.791C81.4811 40.6085 81.8278 40.4771 82.0901 40.2495C82.5496 39.8507 82.5846 39.4608 82.3367 38.9026C81.7104 37.4919 81.0913 36.0781 80.4709 34.6648C80.437 34.5875 80.4183 34.5037 80.3929 34.4241C81.0915 34.1469 81.3062 34.2295 81.5801 34.8474C82.0505 35.909 82.527 36.968 83.0318 38.0499Z" fill="#E4BF26"/>
<path d="M68.8109 38.0652C68.8085 38.5445 68.8085 38.9756 68.8085 39.3834C67.9728 39.6514 67.8344 39.5607 67.8339 38.8073C67.8331 37.489 67.8312 36.1706 67.8378 34.8523C67.839 34.63 67.7369 34.3218 68.1316 34.3112C68.4533 34.3026 68.8425 34.212 68.812 34.6571C69.3573 34.5033 69.9002 34.2504 70.4575 34.2138C71.5846 34.1399 72.3818 34.9124 72.429 36.0405C72.4717 37.0619 72.4587 38.0855 72.4937 39.1073C72.5072 39.4992 72.2831 39.5163 71.9954 39.5175C71.7088 39.5187 71.4849 39.5049 71.4938 39.1134C71.5129 38.2639 71.4981 37.4137 71.4972 36.5638C71.4962 35.552 71.0958 35.0862 70.2329 35.0929C69.3727 35.0997 68.7843 35.7471 68.8002 36.6647C68.808 37.1155 68.8091 37.5664 68.8109 38.0652Z" fill="#E4BE25"/>
<path d="M51.218 34.4126C51.5471 34.6682 51.854 34.8928 52.1268 35.1528C52.2825 35.3012 52.4783 35.5193 52.1616 35.7015C51.9272 35.8365 51.6962 36.0978 51.3935 35.7463C50.8796 35.1494 50.2361 34.9482 49.4691 35.231C48.7636 35.4911 48.3189 36.1078 48.3081 36.8584C48.2969 37.6308 48.6973 38.2558 49.3884 38.5451C50.0681 38.8295 50.8438 38.6705 51.3571 38.1415C51.7294 37.7578 51.7888 37.765 52.3991 38.2939C52.0583 38.9616 51.5034 39.3576 50.7807 39.5385C49.5918 39.8361 48.4414 39.4119 47.7988 38.4483C47.127 37.4407 47.1869 36.1393 47.951 35.1466C48.5836 34.3246 49.8398 33.9711 50.9361 34.3077C51.0192 34.3332 51.0998 34.3666 51.218 34.4126Z" fill="#E4BF26"/>
<path d="M76.6829 39.3053C76.391 39.024 76.1318 38.7641 75.8687 38.5003C76.5031 37.9444 76.4907 37.9595 77.0452 38.4076C77.4993 38.7747 78.0351 38.8498 78.564 38.599C78.7305 38.52 78.9111 38.28 78.9164 38.1085C78.9218 37.933 78.7614 37.6645 78.6011 37.5892C78.1959 37.3989 77.7516 37.2893 77.3202 37.1563C76.5636 36.9229 76.1255 36.4591 76.0948 35.8471C76.0548 35.0486 76.5217 34.441 77.3092 34.2658C78 34.1122 78.662 34.1477 79.2467 34.5926C79.9521 35.1293 79.9234 35.3098 79.2997 35.5832C78.6854 35.3828 78.2392 35.1593 77.7772 35.1203C77.5564 35.1017 77.2073 35.3849 77.0921 35.6176C76.9281 35.9486 77.2523 36.148 77.5341 36.2562C77.9873 36.4303 78.4573 36.5609 78.9146 36.7253C79.6051 36.9736 79.9328 37.4179 79.9302 38.0735C79.9276 38.7103 79.5669 39.2088 78.9356 39.4556C78.175 39.7529 77.4368 39.6884 76.6829 39.3053Z" fill="#E4BF27"/>
<path d="M85.8356 35.3143C86.133 34.4926 86.7739 34.2229 87.5295 34.1938C88.3632 34.1617 89.0605 34.4454 89.5051 35.2796C89.2565 35.4226 89.0241 35.5563 88.7918 35.69C88.8001 35.6322 88.8085 35.5745 88.8168 35.5167C88.3825 35.3729 87.953 35.1433 87.5121 35.1194C87.274 35.1065 87.0166 35.4449 86.7678 35.6248C86.9432 35.8529 87.073 36.1645 87.3046 36.2897C87.6642 36.4841 88.0971 36.5401 88.4919 36.6751C89.3298 36.9617 89.6356 37.3928 89.6027 38.2087C89.5768 38.8496 89.0989 39.37 88.3471 39.5401C87.4249 39.7489 86.5734 39.6335 85.9035 38.9C85.747 38.7288 85.4534 38.4928 85.8134 38.2665C86.0487 38.1186 86.3045 37.7811 86.6315 38.2539C86.9814 38.7601 87.7421 38.8868 88.2753 38.5858C88.4349 38.4958 88.6287 38.2888 88.6267 38.1379C88.6242 37.9548 88.473 37.6857 88.3118 37.6097C87.8752 37.4037 87.399 37.2813 86.9392 37.1238C86.0104 36.8057 85.6819 36.283 85.8356 35.3143Z" fill="#E4BF26"/>
<path d="M93.2398 38.7759C93.2746 39.5468 93.2746 39.5468 92.5642 39.5335C91.3918 39.5117 90.9721 39.0862 90.9693 37.9118C90.9673 37.0496 90.9689 36.1874 90.9689 35.303C90.7707 35.2815 90.6338 35.2421 90.5032 35.2571C90.0839 35.3053 89.9149 35.1746 89.9289 34.7164C89.942 34.2849 90.1758 34.2714 90.4702 34.308C90.868 34.3576 90.9834 34.1971 90.9753 33.8121C90.959 33.0444 90.983 33.0393 91.9055 32.9532C91.9055 33.2647 91.9259 33.5725 91.9002 33.8764C91.8703 34.2315 92.029 34.3373 92.357 34.3171C92.6316 34.3001 92.9081 34.3136 93.174 34.3136C93.3944 35.1589 93.3216 35.2776 92.5057 35.241C92.0362 35.2199 91.8534 35.3428 91.8905 35.843C91.9391 36.4981 91.9015 37.1592 91.9076 37.8177C91.9141 38.5144 92.0474 38.6408 92.7293 38.6543C92.8953 38.6576 93.0604 38.7051 93.2398 38.7759Z" fill="#E4BE26"/>
<path d="M47.3231 7.63674C47.9708 6.94227 48.6244 6.78944 49.2975 7.14579C49.876 7.45203 50.2176 8.13903 50.0873 8.76414C49.9542 9.40273 49.5619 9.81903 48.9242 9.95944C48.3157 10.0934 47.782 9.92529 47.3917 9.42222C46.9585 8.86382 46.9861 8.27205 47.3231 7.63674Z" fill="#3B373B"/>
<path d="M16.8619 18.9797C16.6734 19.1343 16.443 19.2767 16.105 19.4855C16.105 18.5814 16.1044 17.7937 16.1051 17.0059C16.1065 15.619 16.1069 15.62 14.714 15.6207C12.7952 15.6217 10.8762 15.6339 8.95766 15.6116C8.49903 15.6063 8.35771 15.744 8.35847 16.2021C8.371 23.7157 8.3679 31.2294 8.37027 38.743C8.37032 38.9096 8.3933 39.0763 8.41186 39.328C8.69787 39.2229 8.91709 39.1423 9.1763 39.0628C8.93878 39.2725 8.66127 39.4812 8.25391 39.7875C8.25391 31.576 8.25391 23.5263 8.25391 15.4157C8.62408 15.4157 8.91626 15.4157 9.20844 15.4157C11.0052 15.4157 12.802 15.4156 14.5988 15.4159C15.0109 15.4159 15.4233 15.4089 15.8351 15.4204C16.169 15.4297 16.2983 15.5634 16.2829 15.9459C16.2409 16.9944 16.2684 18.0456 16.2684 19.1127C16.4675 19.0603 16.6437 19.0139 16.8619 18.9797Z" fill="#FDF4C5"/>
<path d="M65.5578 36.5467C65.5576 35.889 65.5719 35.2829 65.5521 34.678C65.5393 34.29 65.7653 34.2724 66.0541 34.2759C66.3303 34.2793 66.5634 34.262 66.5612 34.6644C66.5529 36.1864 66.5711 37.7087 66.5788 39.2308C66.5809 39.6277 66.2717 39.5174 66.0548 39.5384C65.7689 39.566 65.5422 39.5338 65.551 39.1419C65.5702 38.2945 65.5574 37.4465 65.5578 36.5467ZM66.368 35.1523C66.3678 35.0657 66.3642 34.979 66.368 34.8926C66.3788 34.647 66.3517 34.3912 66.0254 34.4818C65.8978 34.5172 65.7431 34.7484 65.7408 34.8927C65.7192 36.2429 65.718 37.5938 65.7427 38.944C65.7453 39.0843 65.9318 39.3069 66.0709 39.3419C66.3843 39.4206 66.3676 39.1531 66.3676 38.9421C66.3676 37.7127 66.3677 36.4834 66.368 35.1523Z" fill="#E5C656"/>
<path d="M15.6042 35.906C16.0969 35.6685 16.1182 35.2264 16.1132 34.7234C16.093 32.7012 16.1052 30.6787 16.1054 28.6563C16.1054 28.4575 16.1054 28.2588 16.1054 27.9306C17.5402 28.6329 18.8556 29.2768 20.1881 29.9517C19.7736 29.8203 19.3323 29.6793 18.9127 29.4907C18.1849 29.1634 17.4703 28.8073 16.7507 28.462C16.2803 28.2363 16.2273 28.2641 16.2264 28.7887C16.2228 30.9391 16.2152 33.0896 16.2309 35.2399C16.234 35.6738 16.0827 35.8956 15.6042 35.906Z" fill="#FDF4C5"/>
<path d="M66.5567 33.5237C65.9779 33.8157 65.5012 33.7067 65.4459 33.2587C65.4163 33.018 65.4954 32.6595 65.663 32.5287C65.8296 32.3988 66.2187 32.3984 66.4167 32.5082C66.5841 32.6009 66.6402 32.9269 66.6994 33.1612C66.7235 33.2567 66.6256 33.3827 66.5567 33.5237Z" fill="#E3C02D"/>
<path d="M38.2032 38.6887C38.5774 38.801 38.9575 38.9488 39.4502 39.1403C39.4502 36.3033 39.4502 33.559 39.4555 30.7665C39.495 30.8797 39.5585 31.0411 39.5589 31.2027C39.5654 33.7098 39.5667 36.2169 39.5578 38.7239C39.5571 38.9158 39.4715 39.1074 39.4254 39.2991C39.2344 39.2388 39.0332 39.1995 38.8551 39.1129C38.6299 39.0035 38.4237 38.8555 38.2032 38.6887Z" fill="#FDF4C5"/>
<path d="M39.3242 7.55146C38.4159 8.06601 37.4874 8.56372 36.5502 9.04445C35.8422 9.40757 35.123 9.74898 34.3698 10.0988C34.6893 9.8718 35.0343 9.62038 35.4088 9.42495C36.6493 8.77767 37.9002 8.14993 39.1491 7.5187C39.188 7.49906 39.2493 7.52346 39.3242 7.55146Z" fill="#FDF4C5"/>
<path d="M39.501 16.1315C39.4573 13.3278 39.4515 10.5168 39.4481 7.65796C39.5063 7.67271 39.6112 7.73561 39.6109 7.79811C39.601 10.3693 39.5822 12.9405 39.5627 15.5116C39.5611 15.7159 39.5471 15.92 39.501 16.1315Z" fill="#FDF4C5"/>
<path d="M29.3807 12.6013C28.6202 13.0385 27.8241 13.4809 27.0174 13.9031C26.4204 14.2156 25.8095 14.5019 25.1658 14.802C25.5563 14.5341 25.9709 14.2356 26.4188 14C27.3158 13.5281 28.2306 13.0897 29.1398 12.641C29.1993 12.6116 29.2734 12.6116 29.3807 12.6013Z" fill="#FDF4C5"/>
<path d="M38.9342 30.3578C37.8954 29.9022 36.8503 29.4114 35.7899 28.8884C36.9094 29.1669 37.939 29.7014 38.9342 30.3578Z" fill="#FDF4C5"/>
<path d="M25.8619 23.2036C26.4212 22.8671 27.0161 22.5276 27.6209 22.2065C28.0476 21.9799 28.4876 21.778 28.9596 21.5655C28.841 21.7139 28.709 21.912 28.5238 22.0015C27.6579 22.4202 26.7772 22.809 25.8619 23.2036Z" fill="#FDF4C5"/>
<path d="M36.4381 17.7928C37.2896 17.31 38.1823 16.8344 39.1127 16.3598C38.8373 16.5791 38.5429 16.8332 38.2066 17.0075C37.6449 17.2985 37.0564 17.5385 36.4381 17.7928Z" fill="#FDF4C5"/>
<path d="M29.0752 25.6046C28.0142 25.1359 26.9441 24.6305 25.8533 24.0957C26.2433 24.2272 26.665 24.3651 27.0623 24.5539C27.7383 24.8751 28.3989 25.2282 29.0752 25.6046Z" fill="#FDF4C5"/>
<path d="M29.729 34.6149C30.6011 34.9931 31.4794 35.4071 32.3768 35.8513C32.2061 35.8301 32.0018 35.8074 31.8288 35.722C31.1257 35.3753 30.4322 35.0094 29.729 34.6149Z" fill="#FDF4C5"/>
<path d="M32.4457 27.2298C31.5504 26.8431 30.6488 26.4212 29.7272 25.9695C30.2741 26.1685 30.8482 26.382 31.4057 26.6317C31.7628 26.7916 32.0956 27.0051 32.4457 27.2298Z" fill="#FDF4C5"/>
<path d="M22.6233 31.1709C23.462 31.5376 24.3163 31.936 25.1893 32.3639C24.3516 31.9965 23.4953 31.5996 22.6233 31.1709Z" fill="#FDF4C5"/>
<path d="M34.2205 10.1169C33.5061 10.5269 32.7514 10.9318 31.959 11.3384C32.4212 11.0342 32.9146 10.7167 33.4243 10.4275C33.6599 10.2938 33.9273 10.2152 34.2205 10.1169Z" fill="#FDF4C5"/>
<path d="M26.1649 32.8773C26.8137 33.1533 27.4708 33.4627 28.1489 33.801C27.5043 33.5235 26.8388 33.2171 26.1649 32.8773Z" fill="#FDF4C5"/>
<path d="M25.0259 14.8126C24.4469 15.1568 23.8264 15.489 23.1676 15.8197C23.2975 15.6868 23.4502 15.5259 23.6368 15.4301C24.0775 15.2038 24.5342 15.0085 25.0259 14.8126Z" fill="#FDF4C5"/>
<path d="M35.6906 28.7924C35.1698 28.5851 34.6427 28.3428 34.0964 28.0704C34.6129 28.2794 35.1486 28.5184 35.6906 28.7924Z" fill="#FDF4C5"/>
<path d="M10.7299 38.3264C11.2898 38.0152 11.89 37.7047 12.5279 37.3961C11.9671 37.7077 11.3686 38.0174 10.7299 38.3264Z" fill="#FDF4C5"/>
<path d="M33.6097 19.2484C34.1431 18.9313 34.7171 18.6198 35.3296 18.3032C34.7955 18.6167 34.223 18.9354 33.6097 19.2484Z" fill="#FDF4C5"/>
<path d="M25.6526 23.9757C25.4228 23.9151 25.1896 23.8201 24.9565 23.7251C24.9485 23.6782 24.9405 23.6313 24.9325 23.5844C25.18 23.4646 25.4275 23.3449 25.7135 23.2272C25.6304 23.3619 25.5089 23.4946 25.3854 23.6295C25.4653 23.7239 25.5573 23.8326 25.6526 23.9757Z" fill="#FDF4C5"/>
<path d="M36.5266 37.8729C37.0357 38.0805 37.5527 38.3221 38.0903 38.5926C37.5854 38.3833 37.06 38.1452 36.5266 37.8729Z" fill="#FDF4C5"/>
<path d="M21.7712 16.4707C21.3323 16.7427 20.8518 17.0052 20.3333 17.2659C20.7733 16.9965 21.2514 16.7289 21.7712 16.4707Z" fill="#FDF4C5"/>
<path d="M18.8591 17.9456C18.4489 18.2121 17.9973 18.4637 17.5085 18.7138C17.9201 18.4517 18.3689 18.1912 18.8591 17.9456Z" fill="#FDF4C5"/>
<path d="M14.0793 36.6605C14.4978 36.4146 14.9563 36.1695 15.4527 35.924C15.0335 36.1694 14.5765 36.4153 14.0793 36.6605Z" fill="#FDF4C5"/>
<path d="M20.5161 30.1455C20.9579 30.3206 21.4065 30.5303 21.8735 30.7704C21.4355 30.5938 20.9792 30.387 20.5161 30.1455Z" fill="#FDF4C5"/>
<path d="M33.9123 27.9492C33.4936 27.7845 33.0673 27.5857 32.6191 27.359C33.0332 27.5258 33.4689 27.7205 33.9123 27.9492Z" fill="#FDF4C5"/>
<path d="M33.6129 36.4826C33.9361 36.6002 34.2745 36.7498 34.6327 36.9288C34.3111 36.8103 33.9696 36.6626 33.6129 36.4826Z" fill="#FDF4C5"/>
<path d="M13.377 37.0327C13.5493 36.8935 13.7542 36.7773 13.9959 36.6621C13.8963 36.9062 13.8336 37.2649 13.377 37.0327Z" fill="#FDF4C5"/>
<path d="M10.0275 38.6986C10.1998 38.5595 10.4047 38.4432 10.6464 38.3281C10.5468 38.5722 10.4841 38.9309 10.0275 38.6986Z" fill="#FDF4C5"/>
<path d="M30.9674 20.5826C31.2018 20.4178 31.4765 20.2643 31.7886 20.1139C31.5532 20.2759 31.2804 20.4348 30.9674 20.5826Z" fill="#FDF4C5"/>
<path d="M25.2236 32.4352C25.4843 32.5129 25.7523 32.627 26.0394 32.771C25.7826 32.691 25.5068 32.5813 25.2236 32.4352Z" fill="#FDF4C5"/>
<path d="M31.0458 11.7631C30.8628 11.8958 30.6405 12.0267 30.3817 12.1535C30.5657 12.0201 30.7861 11.8907 31.0458 11.7631Z" fill="#FDF4C5"/>
<path d="M35.5898 37.4311C35.8233 37.5038 36.0637 37.6118 36.3254 37.7487C36.0968 37.6739 35.8467 37.5701 35.5898 37.4311Z" fill="#FDF4C5"/>
<path d="M34.7506 37.0224C34.9839 37.0929 35.2241 37.1993 35.4847 37.3351C35.2559 37.2624 35.0067 37.1603 34.7506 37.0224Z" fill="#FDF4C5"/>
<path d="M31.9489 20.0896C32.1049 19.9624 32.2996 19.8389 32.5293 19.7205C32.372 19.8481 32.1798 19.9707 31.9489 20.0896Z" fill="#FDF4C5"/>
<path d="M30.2871 20.9299C30.432 20.8195 30.6151 20.7113 30.8353 20.6009C30.6901 20.7098 30.5077 20.8209 30.2871 20.9299Z" fill="#FDF4C5"/>
<path d="M32.9786 19.5584C33.1004 19.4574 33.2616 19.361 33.4599 19.2678C33.3374 19.3683 33.1777 19.4657 32.9786 19.5584Z" fill="#FDF4C5"/>
<path d="M12.6841 37.3707C12.8329 37.2591 13.0211 37.1526 13.2468 37.0439C13.0973 37.1532 12.9104 37.2645 12.6841 37.3707Z" fill="#FDF4C5"/>
<path d="M9.33472 39.0367C9.4835 38.925 9.67178 38.8185 9.89741 38.7099C9.74792 38.8191 9.56107 38.9304 9.33472 39.0367Z" fill="#FDF4C5"/>
<path d="M22.3936 16.1537C22.271 16.2568 22.1105 16.3541 21.913 16.4503C22.0358 16.3488 22.1958 16.2484 22.3936 16.1537Z" fill="#FDF4C5"/>
<path d="M35.4659 18.2907C35.5626 18.1925 35.699 18.1085 35.871 18.0264C35.773 18.1206 35.6394 18.2128 35.4659 18.2907Z" fill="#FDF4C5"/>
<path d="M29.1097 21.54C29.2317 21.4418 29.3926 21.3481 29.5905 21.2564C29.4679 21.3537 29.3083 21.4491 29.1097 21.54Z" fill="#FDF4C5"/>
<path d="M30.1515 12.2053C30.0554 12.3018 29.9198 12.3878 29.7487 12.4711C29.8461 12.3772 29.9791 12.286 30.1515 12.2053Z" fill="#FDF4C5"/>
<path d="M29.1012 34.3064C29.241 34.3335 29.3881 34.3972 29.5561 34.4881C29.4209 34.4579 29.2647 34.4004 29.1012 34.3064Z" fill="#FDF4C5"/>
<path d="M33.073 36.2158C33.1789 36.2337 33.2944 36.2856 33.4293 36.3644C33.3266 36.3442 33.2047 36.297 33.073 36.2158Z" fill="#FDF4C5"/>
<path d="M20.2466 17.271C20.1465 17.351 20.0087 17.4319 19.8351 17.5144C19.9358 17.4346 20.0724 17.3532 20.2466 17.271Z" fill="#FDF4C5"/>
<path d="M31.8157 11.3643C31.7606 11.4332 31.6669 11.4936 31.538 11.5511C31.5942 11.484 31.6856 11.4199 31.8157 11.3643Z" fill="#FDF4C5"/>
<path d="M29.8733 21.1425C29.9509 21.0696 30.0646 20.9985 30.2137 20.9275C30.1359 20.9998 30.0227 21.0721 29.8733 21.1425Z" fill="#FDF4C5"/>
<path d="M17.2836 18.7731C17.2288 18.8462 17.1329 18.9074 17.0021 18.9693C17.0589 18.9005 17.1507 18.8308 17.2836 18.7731Z" fill="#FDF4C5"/>
<path d="M19.5555 17.6086C19.5024 17.676 19.415 17.7385 19.2927 17.7985C19.3456 17.7319 19.4333 17.6677 19.5555 17.6086Z" fill="#FDF4C5"/>
<path d="M31.388 11.569C31.3359 11.6387 31.2452 11.7017 31.1204 11.7644C31.174 11.6969 31.2617 11.6296 31.388 11.569Z" fill="#FDF4C5"/>
<path d="M28.6814 34.1071C28.7744 34.1092 28.8765 34.1463 28.9972 34.2118C28.9074 34.2074 28.799 34.1747 28.6814 34.1071Z" fill="#FDF4C5"/>
<path d="M32.5565 35.9715C32.6507 35.9748 32.7529 36.0146 32.8757 36.0817C32.7857 36.0753 32.6751 36.0416 32.5565 35.9715Z" fill="#FDF4C5"/>
<path d="M28.2633 33.8934C28.3558 33.8986 28.4562 33.9389 28.5731 34.0086C28.4835 34.0016 28.3774 33.965 28.2633 33.8934Z" fill="#FDF4C5"/>
<path d="M22.2052 30.9607C22.2947 30.9687 22.3998 31.0086 22.5201 31.08C22.4305 31.0719 22.3257 31.0322 22.2052 30.9607Z" fill="#FDF4C5"/>
<path d="M29.6177 25.8757C29.5243 25.8715 29.4231 25.8312 29.3018 25.7635C29.391 25.7705 29.5004 25.805 29.6177 25.8757Z" fill="#FDF4C5"/>
<path d="M22.8206 15.9488C22.7896 16.0062 22.7252 16.057 22.629 16.1014C22.6606 16.0441 22.7239 15.9932 22.8206 15.9488Z" fill="#FDF4C5"/>
<path d="M39.4565 30.6781C39.3883 30.6711 39.3178 30.6279 39.2345 30.5558C39.2992 30.5651 39.3767 30.6036 39.4565 30.6781Z" fill="#FDF4C5"/>
<path d="M19.7659 17.5086C19.749 17.5484 19.6986 17.5822 19.6165 17.6158C19.6339 17.5779 19.6832 17.5403 19.7659 17.5086Z" fill="#FDF4C5"/>
<path d="M19.1459 17.8188C19.1284 17.8611 19.0749 17.8983 18.9877 17.9366C19.0059 17.8964 19.0579 17.8551 19.1459 17.8188Z" fill="#FDF4C5"/>
<path d="M21.903 30.8312C21.9507 30.8168 22.0117 30.8349 22.0927 30.8785C22.0472 30.8907 21.9818 30.8772 21.903 30.8312Z" fill="#FDF4C5"/>
<path d="M20.2203 30.0112C20.2644 29.9987 20.3246 30.0152 20.404 30.0571C20.3609 30.0684 20.2987 30.0543 20.2203 30.0112Z" fill="#FDF4C5"/>
<path d="M39.254 16.331C39.2514 16.3054 39.2774 16.2797 39.3316 16.2536C39.334 16.2791 39.3082 16.305 39.254 16.331Z" fill="#FDF4C5"/>
<path d="M29.6768 12.4843C29.6977 12.5113 29.6866 12.5307 29.6401 12.5308C29.6332 12.5063 29.6465 12.4948 29.6768 12.4843Z" fill="#FDF4C5"/>
<path d="M23.0329 15.8485C23.035 15.8748 23.0077 15.9003 22.9514 15.9268C22.9494 15.9011 22.9764 15.8744 23.0329 15.8485Z" fill="#FDF4C5"/>
<path d="M39.3919 16.2394C39.3692 16.212 39.385 16.184 39.4382 16.1536C39.4606 16.1797 39.4456 16.2089 39.3919 16.2394Z" fill="#FDF4C5"/>
<path d="M39.1334 30.4732C39.1128 30.4881 39.078 30.4787 39.0284 30.4456C39.0489 30.4309 39.0841 30.4399 39.1334 30.4732Z" fill="#FDF4C5"/>
<path d="M32.7627 19.6619C32.7603 19.6365 32.7861 19.6108 32.84 19.585C32.8424 19.6106 32.8167 19.6361 32.7627 19.6619Z" fill="#FDF4C5"/>
<path d="M66.3679 35.2031C66.3677 36.4834 66.3675 37.7127 66.3676 38.9421C66.3676 39.1531 66.3843 39.4206 66.0709 39.3419C65.9318 39.3069 65.7453 39.0843 65.7427 38.944C65.718 37.5938 65.7191 36.2429 65.7408 34.8927C65.7431 34.7484 65.8977 34.5172 66.0253 34.4818C66.3517 34.3912 66.3788 34.647 66.368 34.8926C66.3642 34.979 66.3677 35.0657 66.3679 35.2031Z" fill="#E7BC16"/>
</g>
<defs>
<clipPath id="clip0_143_7881">
<rect width="118.8" height="48" fill="white"/>
</clipPath>
</defs>
</svg>
