<svg width="24" height="12" viewBox="0 0 24 12" fill="none" xmlns="http://www.w3.org/2000/svg">
<path d="M12.75 6C12.75 7.18669 12.3981 8.34673 11.7388 9.33342C11.0795 10.3201 10.1425 11.0892 9.0461 11.5433C7.94975 11.9974 6.74335 12.1162 5.57946 11.8847C4.41558 11.6532 3.34648 11.0818 2.50736 10.2426C1.66825 9.40353 1.0968 8.33443 0.865291 7.17054C0.63378 6.00666 0.7526 4.80026 1.20673 3.7039C1.66085 2.60754 2.42989 1.67047 3.41658 1.01118C4.40328 0.351894 5.56332 0 6.75 0C8.34077 0.00173705 9.86588 0.634436 10.9907 1.75928C12.1156 2.88412 12.7483 4.40923 12.75 6ZM17.25 0C16.7175 0 15.7125 0.25875 14.97 1.99219C14.5059 3.075 14.25 4.5 14.25 6C14.25 7.5 14.5059 8.925 14.97 10.0078C15.7125 11.7413 16.7175 12 17.25 12C17.7825 12 18.7875 11.7413 19.53 10.0078C19.9941 8.925 20.25 7.5 20.25 6C20.25 4.5 19.9941 3.075 19.53 1.99219C18.7875 0.25875 17.7825 0 17.25 0ZM22.5 0C22.3011 0 22.1103 0.0790178 21.9697 0.21967C21.829 0.360322 21.75 0.551088 21.75 0.75V11.25C21.75 11.4489 21.829 11.6397 21.9697 11.7803C22.1103 11.921 22.3011 12 22.5 12C22.6989 12 22.8897 11.921 23.0303 11.7803C23.171 11.6397 23.25 11.4489 23.25 11.25V0.75C23.25 0.551088 23.171 0.360322 23.0303 0.21967C22.8897 0.0790178 22.6989 0 22.5 0Z" fill="#9E3FFE"/>
</svg>
