<svg width="24" height="22" viewBox="0 0 24 22" fill="none" xmlns="http://www.w3.org/2000/svg">
<path d="M5.40002 5.75025V5.40025C5.40002 4.09346 5.40002 3.43958 5.65434 2.94045C5.87805 2.50141 6.23474 2.14471 6.67379 1.92101C7.17291 1.66669 7.8268 1.66669 9.13359 1.66669H19.1669C20.4737 1.66669 21.1262 1.66669 21.6253 1.92101C22.0644 2.14471 22.4223 2.50141 22.646 2.94045C22.9 3.43909 22.9 4.09218 22.9 5.39642V13.1036C22.9 14.4079 22.9 15.06 22.646 15.5586C22.4223 15.9977 22.0646 16.3556 21.6255 16.5793C21.1269 16.8334 20.4745 16.8334 19.1703 16.8334H10.65M1.90002 16.6002V10.0669C1.90002 8.76013 1.90002 8.10624 2.15434 7.60712C2.37805 7.16807 2.73474 6.81138 3.17379 6.58767C3.67291 6.33335 4.3268 6.33335 5.63359 6.33335H6.33359C7.64037 6.33335 8.29286 6.33335 8.79199 6.58767C9.23103 6.81138 9.58892 7.16807 9.81262 7.60712C10.0667 8.10576 10.0667 8.75885 10.0667 10.0631V16.6036C10.0667 17.9079 10.0667 18.56 9.81262 19.0586C9.58892 19.4977 9.23103 19.8556 8.79199 20.0793C8.29335 20.3334 7.6412 20.3334 6.33696 20.3334H5.62975C4.32552 20.3334 3.67243 20.3334 3.17379 20.0793C2.73474 19.8556 2.37805 19.4977 2.15434 19.0586C1.90002 18.5595 1.90002 17.907 1.90002 16.6002Z" stroke="#F17300" stroke-width="2" stroke-linecap="round" stroke-linejoin="round"/>
</svg>
