<svg width="22" height="19" viewBox="0 0 22 19" fill="none" xmlns="http://www.w3.org/2000/svg">
<path d="M21.2075 0.455262C21.0913 0.35492 20.9499 0.288186 20.7986 0.262249C20.6473 0.236313 20.4917 0.252157 20.3487 0.308075L1.34937 7.74339C1.0801 7.84809 0.85214 8.03743 0.699797 8.28291C0.547454 8.52838 0.478977 8.8167 0.504676 9.10446C0.530374 9.39222 0.648857 9.66385 0.842287 9.87844C1.03572 10.093 1.29362 10.239 1.57718 10.2943L6.49999 11.2609V16.75C6.49902 17.0489 6.58787 17.3413 6.75503 17.5892C6.92219 17.8371 7.15995 18.0291 7.43749 18.1403C7.71461 18.2534 8.01936 18.2806 8.31213 18.2182C8.60489 18.1559 8.87211 18.0068 9.07906 17.7906L11.4528 15.3287L15.2187 18.625C15.4904 18.866 15.8409 18.9993 16.2041 19C16.3632 18.9998 16.5214 18.9748 16.6728 18.9259C16.9203 18.8474 17.1428 18.7054 17.3183 18.5141C17.4938 18.3228 17.6162 18.0889 17.6731 17.8356L21.4784 1.2812C21.5125 1.1319 21.5052 0.976156 21.4575 0.830657C21.4098 0.685157 21.3234 0.555389 21.2075 0.455262ZM16.2059 17.5L8.45468 10.7031L19.6109 2.70714L16.2059 17.5Z" fill="#9E3FFE"/>
</svg>
