<svg width="20" height="20" viewBox="0 0 20 20" fill="none" xmlns="http://www.w3.org/2000/svg">
<path d="M19.569 15.8691L16.069 19.3691C15.9048 19.5332 15.6821 19.6255 15.4499 19.6255C15.2177 19.6255 14.995 19.5332 14.8308 19.3691C14.6667 19.2049 14.5744 18.9822 14.5744 18.75C14.5744 18.5178 14.6667 18.2951 14.8308 18.1309L16.8379 16.125H1.44991C1.21784 16.125 0.995283 16.0328 0.831189 15.8687C0.667095 15.7046 0.574907 15.4821 0.574907 15.25C0.574907 15.0179 0.667095 14.7954 0.831189 14.6313C0.995283 14.4672 1.21784 14.375 1.44991 14.375H16.8379L14.8308 12.3691C14.6667 12.2049 14.5744 11.9822 14.5744 11.75C14.5744 11.5178 14.6667 11.2951 14.8308 11.1309C14.995 10.9668 15.2177 10.8745 15.4499 10.8745C15.6821 10.8745 15.9048 10.9668 16.069 11.1309L19.569 14.6309C19.6503 14.7122 19.7149 14.8087 19.7589 14.9149C19.8029 15.0211 19.8256 15.135 19.8256 15.25C19.8256 15.365 19.8029 15.4788 19.7589 15.5851C19.7149 15.6913 19.6503 15.7878 19.569 15.8691ZM4.33084 8.86906C4.49503 9.03325 4.71771 9.12548 4.94991 9.12548C5.1821 9.12548 5.40478 9.03325 5.56897 8.86906C5.73316 8.70488 5.82539 8.48219 5.82539 8.25C5.82539 8.0178 5.73316 7.79512 5.56897 7.63094L3.56194 5.625H18.9499C19.182 5.625 19.4045 5.53281 19.5686 5.36872C19.7327 5.20462 19.8249 4.98206 19.8249 4.75C19.8249 4.51793 19.7327 4.29537 19.5686 4.13128C19.4045 3.96719 19.182 3.875 18.9499 3.875H3.56194L5.56897 1.86906C5.73316 1.70488 5.82539 1.48219 5.82539 1.25C5.82539 1.0178 5.73315 0.795121 5.56897 0.630936C5.40478 0.46675 5.1821 0.374512 4.94991 0.374512C4.71771 0.374512 4.49503 0.46675 4.33084 0.630936L0.830845 4.13094C0.74949 4.2122 0.684951 4.3087 0.640918 4.41493C0.596884 4.52115 0.574219 4.63501 0.574219 4.75C0.574219 4.86499 0.596884 4.97885 0.640918 5.08507C0.684951 5.19129 0.74949 5.2878 0.830845 5.36906L4.33084 8.86906Z" fill="#4CC3FC"/>
</svg>
