<svg width="21" height="19" viewBox="0 0 21 19" fill="none" xmlns="http://www.w3.org/2000/svg">
<path d="M20.0307 4.28068L17.2275 7.08381C16.6613 13.6482 11.1254 18.7501 4.50005 18.7501C3.1388 18.7501 2.01661 18.5344 1.16442 18.1088C0.477234 17.7647 0.195984 17.3963 0.125672 17.2913C0.0629758 17.1973 0.0223384 17.0903 0.00679609 16.9784C-0.00874617 16.8664 0.00120865 16.7524 0.0359163 16.6449C0.0706239 16.5373 0.129187 16.439 0.20723 16.3573C0.285273 16.2756 0.380778 16.2125 0.486609 16.1729C0.510984 16.1635 2.75911 15.3001 4.18692 13.6566C3.39509 13.0056 2.70387 12.2411 2.13567 11.3879C0.973172 9.66193 -0.328079 6.66381 0.0731715 2.1835C0.0858898 2.04113 0.139023 1.90537 0.226315 1.79219C0.313606 1.67901 0.43142 1.59313 0.565882 1.54467C0.700345 1.4962 0.845857 1.48717 0.985282 1.51863C1.12471 1.55009 1.25224 1.62073 1.35286 1.72225C1.38567 1.75506 4.47286 4.82537 8.24723 5.821V5.25006C8.2458 4.65137 8.36417 4.05844 8.59537 3.50619C8.82658 2.95394 9.16594 2.45353 9.59348 2.03443C10.0087 1.6198 10.5028 1.29253 11.0465 1.07194C11.5903 0.851352 12.1727 0.741904 12.7594 0.750058C13.5465 0.757821 14.3182 0.969108 14.9995 1.36338C15.6807 1.75764 16.2484 2.32148 16.6472 3.00006H19.5C19.6485 2.99994 19.7936 3.04386 19.917 3.12627C20.0405 3.20867 20.1367 3.32585 20.1935 3.46297C20.2503 3.60008 20.2652 3.75097 20.2362 3.89654C20.2072 4.0421 20.1357 4.17579 20.0307 4.28068Z" fill="#9E3FFE"/>
</svg>
