<svg width="16" height="14" viewBox="0 0 16 14" fill="none" xmlns="http://www.w3.org/2000/svg">
<path d="M14.1875 0.8125H1.8125C1.51413 0.8125 1.22798 0.931026 1.017 1.142C0.806026 1.35298 0.6875 1.63913 0.6875 1.9375V12.0625C0.6875 12.3609 0.806026 12.647 1.017 12.858C1.22798 13.069 1.51413 13.1875 1.8125 13.1875H14.1875C14.4859 13.1875 14.772 13.069 14.983 12.858C15.194 12.647 15.3125 12.3609 15.3125 12.0625V1.9375C15.3125 1.63913 15.194 1.35298 14.983 1.142C14.772 0.931026 14.4859 0.8125 14.1875 0.8125ZM14.1875 1.9375V9.16211L12.3545 7.32977C12.25 7.22527 12.126 7.14238 11.9894 7.08583C11.8529 7.02928 11.7066 7.00017 11.5589 7.00017C11.4111 7.00017 11.2648 7.02928 11.1283 7.08583C10.9918 7.14238 10.8678 7.22527 10.7633 7.32977L9.35703 8.73602L6.26328 5.64227C6.05232 5.43145 5.76629 5.31302 5.46805 5.31302C5.16981 5.31302 4.88377 5.43145 4.67281 5.64227L1.8125 8.50258V1.9375H14.1875ZM1.8125 10.0938L5.46875 6.4375L11.0938 12.0625H1.8125V10.0938ZM14.1875 12.0625H12.6849L10.1537 9.53125L11.5599 8.125L14.1875 10.7533V12.0625ZM9.125 5.03125C9.125 4.86437 9.17449 4.70124 9.2672 4.56249C9.35991 4.42373 9.49169 4.31559 9.64586 4.25173C9.80004 4.18787 9.96969 4.17116 10.1334 4.20371C10.297 4.23627 10.4474 4.31663 10.5654 4.43463C10.6834 4.55263 10.7637 4.70297 10.7963 4.86664C10.8288 5.03031 10.8121 5.19996 10.7483 5.35414C10.6844 5.50831 10.5763 5.64009 10.4375 5.7328C10.2988 5.82552 10.1356 5.875 9.96875 5.875C9.74497 5.875 9.53036 5.78611 9.37213 5.62787C9.21389 5.46964 9.125 5.25503 9.125 5.03125Z" fill="#F6C209"/>
</svg>
